<svg xmlns="http://www.w3.org/2000/svg" viewBox="0 0 62.5 62.5"><defs><style>.cls-1{fill:#8F8F8F;}.cls-2{fill:none;stroke:#8F8F8F;stroke-miterlimit:10;stroke-width:2.75px;}</style></defs><title>logo</title><g id="Layer_2" data-name="Layer 2"><g id="Layer_1-2" data-name="Layer 1"><path class="cls-1" d="M31.25,33.24l11.48,8.13h-23l11.48-8.13m0-3.07a1.34,1.34,0,0,0-.78.25L14.57,41.68a1.34,1.34,0,0,0,.78,2.44H47.15a1.34,1.34,0,0,0,.78-2.44L32,30.42a1.34,1.34,0,0,0-.78-.25Z"/><path class="cls-1" d="M31.2,14.78,46.56,41.37H15.85L31.2,14.78m0-3.28a2.2,2.2,0,0,0-1.92,1.11L13,40.79a2.22,2.22,0,0,0,1.92,3.33H47.47a2.22,2.22,0,0,0,1.92-3.33L33.13,12.61A2.2,2.2,0,0,0,31.2,11.5Z"/><line class="cls-2" x1="31.25" y1="32" x2="31.25" y2="12"/><circle class="cls-2" cx="31.25" cy="31.25" r="29.88"/></g></g></svg>
