<?xml version="1.0" encoding="UTF-8" standalone="no"?>
<svg width="96px" height="60px" viewBox="0 0 96 60" version="1.1" xmlns="http://www.w3.org/2000/svg" xmlns:xlink="http://www.w3.org/1999/xlink" xmlns:sketch="http://www.bohemiancoding.com/sketch/ns">
    <!-- Generator: Sketch 3.3.3 (12072) - http://www.bohemiancoding.com/sketch -->
    <title>shape-visual</title>
    <desc>Created with Sketch.</desc>
    <defs>
        <linearGradient x1="96.6922588%" y1="52.0419901%" x2="3.30774122%" y2="52.0419901%" id="linearGradient-1">
            <stop stop-color="#21F0C8" offset="0%"></stop>
            <stop stop-color="#B0FFA9" offset="100%"></stop>
        </linearGradient>
    </defs>
    <g id="Desktop-Design" stroke="none" stroke-width="1" fill="none" fill-rule="evenodd" sketch:type="MSPage">
        <g id="fa_site_profile" sketch:type="MSArtboardGroup" transform="translate(-685.000000, -1630.000000)" fill="url(#linearGradient-1)">
            <g id="Our-Focus" sketch:type="MSLayerGroup" transform="translate(460.000000, 1048.000000)">
                <g id="Visual-Design" transform="translate(0.000000, 582.000000)" sketch:type="MSShapeGroup">
                    <path d="M225,60 L321,60 L321,0 L225,0 L225,60 Z M285.402563,2.30769231 L318.676825,2.30769231 L318.676825,35.3596154 L285.402563,35.3596154 L285.402563,2.30769231 Z M285.402563,46.9719231 L296.194294,46.9719231 L296.194294,57.6923077 L285.402563,57.6923077 L285.402563,46.9719231 Z M285.402563,37.6673077 L296.194294,37.6673077 L296.194294,44.6642308 L285.402563,44.6642308 L285.402563,37.6673077 Z M227.323175,2.30769231 L283.079387,2.30769231 L283.079387,57.6923077 L227.323175,57.6923077 L227.323175,2.30769231 Z M298.517469,37.6673077 L318.676825,37.6673077 L318.676825,57.6923077 L298.517469,57.6923077 L298.517469,37.6673077 Z" id="shape-visual"></path>
                </g>
            </g>
        </g>
    </g>
</svg>